<?xml version="1.0" encoding="UTF-8" standalone="no"?>
<!DOCTYPE svg PUBLIC "-//W3C//DTD SVG 1.1//EN" "http://www.w3.org/Graphics/SVG/1.1/DTD/svg11.dtd">
<svg width="100%" height="100%" viewBox="0 0 9376 4167" version="1.1" xmlns="http://www.w3.org/2000/svg" xmlns:xlink="http://www.w3.org/1999/xlink" xml:space="preserve" xmlns:serif="http://www.serif.com/" style="fill-rule:evenodd;clip-rule:evenodd;stroke-linejoin:round;stroke-miterlimit:2;">
    <g transform="matrix(1,0,0,1,-10634.8,0)">
        <g id="Page-2" serif:id="Page 2" transform="matrix(4.16667,0,0,4.16667,10634.8,0)">
            <rect x="0" y="0" width="2250.1" height="1000" style="fill:none;"/>
            <g id="Layer-1" serif:id="Layer 1">
                <g transform="matrix(1,0,0,1,626.909,504.799)">
                    <path d="M0,279.166C10.336,281.27 21.481,277.966 28.99,269.513C40.21,256.885 39.069,237.552 26.443,226.334C14.355,215.591 8.313,198.508 10.676,181.744C12.045,172.043 17.479,154.267 38.51,144.204L213.708,60.369C228.945,53.078 235.387,34.817 228.095,19.58C220.804,4.347 202.544,-2.104 187.304,5.194L12.109,89.027C-22.055,105.369 -44.655,136.054 -49.894,173.206C-55.163,210.559 -41.814,247.516 -14.186,272.06C-10.014,275.771 -5.104,278.127 0,279.166" style="fill:white;fill-rule:nonzero;"/>
                </g>
                <g transform="matrix(1,0,0,1,456.337,411.027)">
                    <path d="M0,338.224C5.106,339.263 10.544,339.012 15.837,337.229C50.857,325.433 77.588,296.633 87.337,260.192C97.035,223.948 88.225,186.87 63.167,158.472L-65.327,12.838C-76.503,0.167 -95.832,-1.039 -108.496,10.136C-121.162,21.312 -122.371,40.638 -111.196,53.305L17.299,198.942C32.724,216.427 30.778,234.913 28.247,244.378C23.872,260.732 11.634,274.095 -3.691,279.258C-19.697,284.649 -28.304,301.999 -22.912,318.008C-19.304,328.724 -10.336,336.12 0,338.224" style="fill:white;fill-rule:nonzero;"/>
                </g>
                <g transform="matrix(1,0,0,1,635.192,435.396)">
                    <path d="M0,-93.298C-1.275,-99.857 -9.843,-101.601 -13.58,-96.062L-70.775,-11.276C-82.444,6.019 -82.534,26.731 -71.019,44.128C-59.507,61.528 -40.404,69.537 -19.93,65.559C7.062,60.311 24.754,34.086 19.509,7.098L0,-93.298ZM-122.032,77.89C-147.286,39.726 -147.078,-7.55 -121.486,-45.485L-12.871,-206.494C-5.951,-216.75 6.461,-221.828 18.584,-219.361C30.705,-216.894 40.148,-207.368 42.508,-195.224L79.557,-4.57C91.233,55.528 51.839,113.925 -8.259,125.603C-23.313,128.53 -38.214,128.419 -52.327,125.547C-80.334,119.847 -105.239,103.262 -122.032,77.89" style="fill:white;fill-rule:nonzero;"/>
                </g>
                <g transform="matrix(1,0,0,1,977.076,390.87)">
                    <path d="M0,221.867C-6.084,217 -8.721,213.958 -8.721,210.104C-8.721,205.44 -4.867,200.775 3.042,191.446C12.168,180.495 16.021,178.67 19.672,178.67C23.728,178.873 26.567,181.306 32.449,185.971C55.366,205.846 79.094,214.363 108.906,214.363C144.803,214.363 167.111,199.153 167.111,173.599C167.111,152.305 150.887,141.353 108.298,129.185C49.282,111.947 22.511,90.45 22.511,47.658C22.511,-4.057 64.289,-36.708 128.984,-36.708C163.055,-36.708 195.504,-27.177 219.84,-8.924C225.113,-5.071 227.75,-2.029 227.75,1.419C227.547,5.678 225.113,9.733 218.218,19.062C210.512,29.203 206.455,33.056 201.588,33.056C197.532,33.056 194.287,30.42 188.608,26.363C171.775,13.79 150.684,7.503 124.522,7.503C91.262,7.503 71.185,20.685 71.185,45.021C71.185,65.505 85.583,75.239 125.942,86.596C188,104.038 215.784,125.332 215.784,170.152C215.784,224.504 174.817,258.575 105.661,258.575C62.87,258.575 28.19,245.392 0,221.867" style="fill:white;fill-rule:nonzero;"/>
                </g>
                <g transform="matrix(1,0,0,1,1218.82,440.758)">
                    <path d="M0,151.902C0,147.035 0.405,141.964 1.419,136.691L29.812,-34.881C33.26,-56.785 33.462,-56.785 56.177,-56.785C79.094,-56.785 79.702,-56.176 76.457,-34.881L72.4,-10.545L125.333,-10.545C147.642,-10.545 147.844,-10.545 143.788,13.386C140.543,31.638 140.34,31.638 121.074,31.638L65.303,31.638L48.267,135.272C47.658,139.531 47.253,143.181 47.253,146.223C47.253,158.594 54.757,165.692 69.562,165.692C81.729,165.692 91.262,163.258 99.576,160.42C105.255,158.797 107.892,157.986 109.92,157.986C116.004,157.986 117.221,161.231 121.479,175.833C123.71,183.539 124.521,186.784 124.521,189.421C124.521,194.288 121.479,196.518 113.57,199.358C96.332,205.847 78.079,208.687 64.694,208.687C25.351,208.687 0,188.407 0,151.902" style="fill:white;fill-rule:nonzero;"/>
                </g>
                <g transform="matrix(1,0,0,1,1437.85,464.488)">
                    <path d="M0,146.829C17.441,146.829 34.478,142.165 45.429,137.703L52.933,89.842C37.316,84.975 24.337,82.743 10.952,82.743C-17.644,82.743 -38.33,93.897 -38.33,118.031C-38.33,135.878 -24.539,146.829 0,146.829M-82.338,120.059C-82.338,75.239 -45.834,50.092 6.49,50.092C24.337,50.092 42.184,52.728 58.408,57.799L61.247,41.979C62.262,35.692 62.262,32.245 62.262,28.391C62.262,11.558 50.499,3.244 28.393,3.244C8.519,3.244 -8.721,8.111 -22.714,12.167C-26.973,13.384 -29.609,13.79 -31.84,13.79C-37.519,13.79 -39.141,11.558 -43.197,-1.421C-45.428,-8.722 -46.036,-12.575 -46.036,-15.414C-46.036,-19.876 -44.008,-22.715 -33.665,-26.163C-14.398,-33.667 10.546,-38.128 29.204,-38.128C79.094,-38.128 108.298,-15.819 108.298,23.524C108.298,29.608 107.689,36.099 106.473,42.993L89.031,148.249C87.409,157.375 86.192,161.228 77.877,165.69C59.017,175.019 32.449,184.957 -2.636,184.957C-55.568,184.957 -82.338,156.361 -82.338,120.059" style="fill:white;fill-rule:nonzero;"/>
                </g>
                <g transform="matrix(1,0,0,1,1556.28,448.263)">
                    <path d="M0,175.425L21.092,47.253C28.19,3.65 57.597,-21.903 102.214,-21.903C113.368,-21.903 129.998,-19.673 139.124,-16.834C148.859,-13.791 154.132,-10.749 154.132,-5.071C154.132,-1.623 152.915,2.231 147.643,15.007C142.978,26.161 140.747,28.19 135.068,28.19C132.432,28.19 128.578,26.77 123.103,25.553C117.83,24.539 110.731,23.119 102.214,23.119C81.934,23.119 69.968,33.665 66.723,52.729L46.442,175.425C42.792,197.328 42.792,197.328 19.875,197.328C-2.839,197.328 -3.447,196.72 0,175.425" style="fill:white;fill-rule:nonzero;"/>
                </g>
                <g transform="matrix(1,0,0,1,1912.61,545.203)">
                    <path d="M0,-87.611C0,-84.771 -1.825,-81.932 -7.301,-77.47L-90.248,-10.546L-33.26,63.073C-28.189,69.968 -25.553,73.213 -25.553,77.067C-25.553,80.109 -27.581,83.962 -39.141,93.29C-50.295,102.214 -54.148,103.228 -56.987,103.228C-62.058,103.228 -65.1,97.955 -68.75,93.088L-125.333,21.498C-132.431,12.371 -133.242,13.386 -145.208,13.386L-152.306,13.386L-163.055,78.486C-166.502,100.389 -166.502,100.389 -189.622,100.389C-212.539,100.389 -213.147,99.984 -209.699,78.486L-168.733,-168.935C-165.285,-190.23 -164.88,-190.839 -142.368,-190.839C-119.451,-190.839 -118.843,-190.23 -122.291,-168.935L-144.802,-31.028L-140.948,-31.028C-131.822,-31.028 -129.592,-32.651 -119.654,-41.574L-38.938,-109.92C-31.435,-116.409 -29.001,-117.626 -25.756,-117.626C-21.294,-117.626 -18.455,-115.192 -10.14,-104.849C-2.027,-94.912 0,-91.667 0,-87.611" style="fill:white;fill-rule:nonzero;"/>
                </g>
            </g>
        </g>
    </g>
</svg>
