<?xml version="1.0" encoding="UTF-8" standalone="no"?>
<!DOCTYPE svg PUBLIC "-//W3C//DTD SVG 1.1//EN" "http://www.w3.org/Graphics/SVG/1.1/DTD/svg11.dtd">
<svg width="100%" height="100%" viewBox="0 0 4167 4167" version="1.1" xmlns="http://www.w3.org/2000/svg" xmlns:xlink="http://www.w3.org/1999/xlink" xml:space="preserve" xmlns:serif="http://www.serif.com/" style="fill-rule:evenodd;clip-rule:evenodd;stroke-linejoin:round;stroke-miterlimit:2;">
    <g transform="matrix(1,0,0,1,-87.4074,0)">
        <g id="Page-1" serif:id="Page 1" transform="matrix(4.16667,0,0,4.16667,87.4074,0)">
            <rect x="0" y="0" width="1000" height="1000" style="fill:none;"/>
            <g id="Layer-1" serif:id="Layer 1">
                <g transform="matrix(1,0,0,1,538.407,506.32)">
                    <path d="M0,367.689C13.613,370.46 28.292,366.109 38.183,354.975C52.961,338.343 51.457,312.879 34.828,298.104C18.906,283.955 10.949,261.455 14.061,239.375C15.864,226.597 23.022,203.184 50.722,189.931L281.475,79.512C301.543,69.909 310.027,45.857 300.424,25.788C290.821,5.725 266.77,-2.771 246.698,6.841L15.949,117.257C-29.048,138.781 -58.816,179.196 -65.716,228.129C-72.655,277.327 -55.073,326.003 -18.685,358.33C-13.19,363.217 -6.723,366.321 0,367.689" style="fill:white;fill-rule:nonzero;"/>
                </g>
                <g transform="matrix(1,0,0,1,313.746,382.813)">
                    <path d="M0,445.475C6.725,446.843 13.888,446.514 20.859,444.164C66.984,428.628 102.191,390.696 115.031,342.7C127.805,294.962 116.201,246.127 83.197,208.724L-86.042,16.909C-100.762,0.221 -126.22,-1.368 -142.9,13.351C-159.583,28.07 -161.174,53.525 -146.456,70.208L22.785,262.027C43.101,285.056 40.538,309.404 37.204,321.871C31.442,343.41 15.324,361.011 -4.862,367.811C-25.943,374.912 -37.279,397.763 -30.177,418.848C-25.425,432.962 -13.613,442.704 0,445.475" style="fill:white;fill-rule:nonzero;"/>
                </g>
                <g transform="matrix(1,0,0,1,548.22,420.547)">
                    <path d="M0,-134.156C-1.275,-140.715 -9.843,-142.459 -13.58,-136.92L-92.122,-20.489C-107.491,2.291 -107.61,29.571 -92.444,52.483C-77.281,75.401 -52.12,85.949 -25.154,80.711C10.397,73.798 33.699,39.257 26.791,3.712L0,-134.156ZM-159.633,96.951C-192.896,46.686 -192.621,-15.581 -158.913,-65.545L-15.857,-277.611C-6.743,-291.118 9.605,-297.806 25.573,-294.557C41.536,-291.308 53.974,-278.761 57.083,-262.767L105.88,-11.656C121.258,67.499 69.372,144.413 -9.783,159.794C-29.61,163.65 -49.236,163.504 -67.824,159.721C-104.713,152.214 -137.515,130.369 -159.633,96.951" style="fill:white;fill-rule:nonzero;"/>
                </g>
            </g>
        </g>
    </g>
</svg>
